<?xml version="1.0" encoding="UTF-8" standalone="no"?><!DOCTYPE svg PUBLIC "-//W3C//DTD SVG 1.1//EN" "http://www.w3.org/Graphics/SVG/1.1/DTD/svg11.dtd"><svg width="100%" height="100%" viewBox="0 0 714 293" version="1.1" xmlns="http://www.w3.org/2000/svg" xmlns:xlink="http://www.w3.org/1999/xlink" xml:space="preserve" xmlns:serif="http://www.serif.com/" style="fill-rule:evenodd;clip-rule:evenodd;stroke-miterlimit:10;"><rect id="Page-1" serif:id="Page 1" x="0" y="0" width="713.926" height="292.889" style="fill:none;"/><clipPath id="_clip1"><rect id="Page-11" serif:id="Page 1" x="0" y="0" width="713.926" height="292.889"/></clipPath><g clip-path="url(#_clip1)"><g id="Warstwa-5" serif:id="Warstwa 5"><rect x="324.968" y="73.659" width="10.725" height="10.725" style="fill:none;stroke:#101047;stroke-width:30px;"/><rect x="324.968" y="62.935" width="10.725" height="10.725" style="fill:#439de8;stroke:#101047;stroke-width:30px;"/><rect x="324.968" y="84.384" width="10.725" height="32.175" style="fill:#439de8;fill-rule:nonzero;stroke:#101047;stroke-width:30px;"/><rect x="314.244" y="73.659" width="10.725" height="10.725" style="fill:#439de8;stroke:#101047;stroke-width:30px;"/><rect x="303.519" y="84.384" width="10.725" height="10.725" style="fill:#439de8;stroke:#101047;stroke-width:30px;"/><rect x="335.693" y="73.659" width="10.725" height="10.725" style="fill:#439de8;stroke:#101047;stroke-width:30px;"/><rect x="346.418" y="84.384" width="10.725" height="10.725" style="fill:#439de8;stroke:#101047;stroke-width:30px;"/><rect x="639.33" y="233.034" width="10.725" height="10.725" style="fill:none;stroke:#101047;stroke-width:30px;"/><rect x="639.33" y="222.309" width="10.725" height="10.725" style="fill:#439de8;stroke:#101047;stroke-width:30px;"/><rect x="639.33" y="243.759" width="10.725" height="32.175" style="fill:#439de8;fill-rule:nonzero;stroke:#101047;stroke-width:30px;"/><rect x="628.606" y="233.034" width="10.725" height="10.725" style="fill:#439de8;stroke:#101047;stroke-width:30px;"/><rect x="617.881" y="243.758" width="10.725" height="10.725" style="fill:#439de8;stroke:#101047;stroke-width:30px;"/><rect x="650.055" y="233.034" width="10.725" height="10.725" style="fill:#439de8;stroke:#101047;stroke-width:30px;"/><rect x="660.78" y="243.758" width="10.725" height="10.725" style="fill:#439de8;stroke:#101047;stroke-width:30px;"/><rect x="664.984" y="28.944" width="10.725" height="10.725" style="fill:none;stroke:#101047;stroke-width:30px;"/><rect x="664.984" y="18.219" width="10.725" height="10.725" style="fill:#439de8;stroke:#101047;stroke-width:30px;"/><rect x="664.984" y="39.669" width="10.725" height="32.175" style="fill:#439de8;fill-rule:nonzero;stroke:#101047;stroke-width:30px;"/><rect x="654.259" y="28.944" width="10.725" height="10.725" style="fill:#439de8;stroke:#101047;stroke-width:30px;"/><rect x="643.534" y="39.669" width="10.725" height="10.725" style="fill:#439de8;stroke:#101047;stroke-width:30px;"/><rect x="675.709" y="28.944" width="10.725" height="10.725" style="fill:#439de8;stroke:#101047;stroke-width:30px;"/><rect x="686.434" y="39.669" width="10.725" height="10.725" style="fill:#439de8;stroke:#101047;stroke-width:30px;"/><path d="M85.39,137.588l-18.222,0l0,-67.111l-46.445,0l0,184l46.445,0l0,-67.111l18.222,0l0,67.111l46.444,0l0,-67.111l-18.222,0l0,-16.889l-14.666,0l0,-16l14.666,0l0,-16.889l18.222,0l0,-67.111l-46.444,0l0,67.111Z" style="fill:#4091e2;fill-rule:nonzero;stroke:#101047;stroke-width:30px;"/><path d="M460.381,225.736l-18.296,0l0,-136.889l-46.445,0l0,147.259l16.185,0l0,18.371l78.778,0l0,-18.371l16.222,0l0,-147.259l-46.444,0l0,136.889Z" style="fill:#4091e2;fill-rule:nonzero;"/><path d="M426.825,239.476l0.259,0l0,-135.629l-16.445,0l0,117.259l16.186,0l0,18.37Zm48.556,0l0.221,0l0,-18.37l16.223,0l0,-117.259l-16.444,0l0,135.629Zm30.221,30l-108.777,0l0,-18.37l-16.186,0l0,-177.259l141.186,0l0,177.259l-16.223,0l0,18.37Z" style="fill:#101047;fill-rule:nonzero;"/><path d="M142.764,187.365l0,67.111l68.667,0l0,-19.111l-38.963,0l0,-6l19.481,0l0,-16.889l-19.481,0l0,-6l38.963,0l0,-19.111l-68.667,0Z" style="fill:#4091e2;fill-rule:nonzero;stroke:#101047;stroke-width:30px;"/><path d="M280.508,187.365l-47.333,0l0,9.556l-10.815,0l0,48l10.815,0l0,9.555l47.333,0l0,-9.555l10.667,0l0,-19.186l-29.704,0l0,9.63l-9.407,0l0,-28.889l9.407,0l0,9.63l29.704,0l0,-19.185l-10.667,0l0,-9.556Z" style="fill:#4091e2;fill-rule:nonzero;stroke:#101047;stroke-width:30px;"/><path d="M302.105,206.476l19.222,0l0,9.63l-9.611,0l0,9.629l-9.611,0l0,28.741l67.407,0l0,-19.111l-19.222,0l0,-9.63l9.611,0l0,-9.629l9.611,0l0,-28.741l-67.407,0l0,19.111Z" style="fill:#4091e2;fill-rule:nonzero;stroke:#101047;stroke-width:30px;"/><path d="M579.397,117.588l17.778,0l0,28.315l-17.778,0l0,-28.315Zm64.889,-8.556l-17.778,0l0,-20.185l-93.555,0l0,165.629l46.444,0l0,-79.833l47.111,0l0,-19.759l17.778,0l0,-45.852Z" style="fill:#4091e2;fill-rule:nonzero;stroke:#101047;stroke-width:30px;"/><path d="M460.381,225.736l-18.296,0l0,-136.889l-46.445,0l0,147.259l16.185,0l0,18.371l78.778,0l0,-18.371l16.222,0l0,-147.259l-46.444,0l0,136.889Z" style="fill:#e0c03b;fill-rule:nonzero;stroke:#101047;stroke-width:30px;"/><path d="M579.064,117.588l17.778,0l0,28.315l-17.778,0l0,-28.315Zm64.889,-8.556l-17.778,0l0,-20.185l-93.556,0l0,165.629l46.445,0l0,-79.833l47.111,0l0,-19.759l17.778,0l0,-45.852Z" style="fill:#e0c03b;fill-rule:nonzero;stroke:#101047;stroke-width:30px;"/><path d="M85.39,137.588l-18.222,0l0,-67.111l-46.445,0l0,184l46.445,0l0,-67.111l18.222,0l0,67.111l46.444,0l0,-67.111l-18.222,0l0,-16.889l-14.666,0l0,-16l14.666,0l0,-16.889l18.222,0l0,-67.111l-46.444,0l0,67.111Z" style="fill:#f26161;fill-rule:nonzero;stroke:#101047;stroke-width:30px;"/><path d="M460.381,225.736l-18.296,0l0,-136.889l-46.445,0l0,147.259l16.185,0l0,18.371l78.778,0l0,-18.371l16.222,0l0,-147.259l-46.444,0l0,136.889Z" style="fill:#439de8;fill-rule:nonzero;stroke:#101047;stroke-width:30px;"/><path d="M142.764,187.365l0,67.111l68.667,0l0,-19.111l-38.963,0l0,-6l19.481,0l0,-16.889l-19.481,0l0,-6l38.963,0l0,-19.111l-68.667,0Z" style="fill:#f26161;fill-rule:nonzero;stroke:#101047;stroke-width:30px;"/><path d="M280.508,187.365l-47.333,0l0,9.556l-10.815,0l0,48l10.815,0l0,9.555l47.333,0l0,-9.555l10.667,0l0,-19.186l-29.704,0l0,9.63l-9.407,0l0,-28.889l9.407,0l0,9.63l29.704,0l0,-19.185l-10.667,0l0,-9.556Z" style="fill:#f26161;fill-rule:nonzero;stroke:#101047;stroke-width:30px;"/><path d="M302.105,206.476l19.222,0l0,9.63l-9.611,0l0,9.629l-9.611,0l0,28.741l67.407,0l0,-19.111l-19.222,0l0,-9.63l9.611,0l0,-9.629l9.611,0l0,-28.741l-67.407,0l0,19.111Z" style="fill:#f26161;fill-rule:nonzero;stroke:#101047;stroke-width:30px;"/><path d="M579.397,117.588l17.778,0l0,28.315l-17.778,0l0,-28.315Zm64.889,-8.556l-17.778,0l0,-20.185l-93.555,0l0,165.629l46.444,0l0,-79.833l47.111,0l0,-19.759l17.778,0l0,-45.852Z" style="fill:#439de8;fill-rule:nonzero;stroke:#101047;stroke-width:30px;"/></g><g id="Warstwa-4" serif:id="Warstwa 4"><rect x="324.967" y="73.66" width="10.725" height="10.725" style="fill:#4091e2;stroke:#0d2493;stroke-width:15px;"/><rect x="324.967" y="62.936" width="10.725" height="10.725" style="fill:#4091e2;stroke:#0d2493;stroke-width:15px;"/><rect x="324.967" y="84.385" width="10.725" height="32.175" style="fill:#4091e2;fill-rule:nonzero;stroke:#0d2493;stroke-width:15px;"/><rect x="314.242" y="73.66" width="10.725" height="10.725" style="fill:#4091e2;stroke:#0d2493;stroke-width:15px;"/><rect x="303.517" y="84.385" width="10.725" height="10.725" style="fill:#4091e2;stroke:#0d2493;stroke-width:15px;"/><rect x="335.692" y="73.66" width="10.725" height="10.725" style="fill:#4091e2;stroke:#0d2493;stroke-width:15px;"/><rect x="346.416" y="84.385" width="10.725" height="10.725" style="fill:#4091e2;stroke:#0d2493;stroke-width:15px;"/><rect x="639.329" y="233.034" width="10.725" height="10.725" style="fill:#4091e2;stroke:#0d2493;stroke-width:15px;"/><rect x="639.329" y="222.31" width="10.725" height="10.725" style="fill:#4091e2;stroke:#0d2493;stroke-width:15px;"/><rect x="639.329" y="243.759" width="10.725" height="32.175" style="fill:#4091e2;fill-rule:nonzero;stroke:#0d2493;stroke-width:15px;"/><rect x="628.604" y="233.034" width="10.725" height="10.725" style="fill:#4091e2;stroke:#0d2493;stroke-width:15px;"/><rect x="617.879" y="243.759" width="10.725" height="10.725" style="fill:#4091e2;stroke:#0d2493;stroke-width:15px;"/><rect x="650.054" y="233.034" width="10.725" height="10.725" style="fill:#4091e2;stroke:#0d2493;stroke-width:15px;"/><rect x="660.778" y="243.759" width="10.725" height="10.725" style="fill:#4091e2;stroke:#0d2493;stroke-width:15px;"/><rect x="664.982" y="28.945" width="10.725" height="10.725" style="fill:#4091e2;stroke:#0d2493;stroke-width:16px;"/><rect x="664.982" y="18.22" width="10.725" height="10.725" style="fill:#4091e2;stroke:#0d2493;stroke-width:16px;"/><rect x="664.982" y="39.67" width="10.725" height="32.175" style="fill:#4091e2;fill-rule:nonzero;stroke:#0d2493;stroke-width:16px;"/><rect x="654.258" y="28.945" width="10.725" height="10.725" style="fill:#4091e2;stroke:#0d2493;stroke-width:16px;"/><rect x="643.533" y="39.67" width="10.725" height="10.725" style="fill:#4091e2;stroke:#0d2493;stroke-width:16px;"/><rect x="675.707" y="28.945" width="10.725" height="10.725" style="fill:#4091e2;stroke:#0d2493;stroke-width:16px;"/><rect x="686.432" y="39.67" width="10.725" height="10.725" style="fill:#4091e2;stroke:#0d2493;stroke-width:16px;"/></g><g id="Warstwa-6" serif:id="Warstwa 6"><rect x="324.967" y="62.935" width="10.725" height="10.725" style="fill:#439de8;"/><rect x="324.968" y="84.384" width="10.725" height="32.175" style="fill:#439de8;fill-rule:nonzero;"/><rect x="314.243" y="73.659" width="10.725" height="10.725" style="fill:#439de8;"/><rect x="303.518" y="84.384" width="10.725" height="10.725" style="fill:#439de8;"/><rect x="335.692" y="73.659" width="10.725" height="10.725" style="fill:#439de8;"/><rect x="346.417" y="84.384" width="10.725" height="10.725" style="fill:#439de8;"/><rect x="639.329" y="222.309" width="10.725" height="10.725" style="fill:#439de8;"/><rect x="639.33" y="243.759" width="10.725" height="32.175" style="fill:#439de8;fill-rule:nonzero;"/><rect x="628.605" y="233.034" width="10.725" height="10.725" style="fill:#439de8;"/><rect x="617.88" y="243.759" width="10.725" height="10.725" style="fill:#439de8;"/><rect x="650.054" y="233.034" width="10.725" height="10.725" style="fill:#439de8;"/><rect x="660.779" y="243.759" width="10.725" height="10.725" style="fill:#439de8;"/><rect x="664.983" y="18.22" width="10.725" height="10.725" style="fill:#439de8;"/><rect x="664.983" y="39.669" width="10.725" height="32.175" style="fill:#439de8;fill-rule:nonzero;"/><rect x="654.259" y="28.944" width="10.725" height="10.725" style="fill:#439de8;"/><rect x="643.534" y="39.669" width="10.725" height="10.725" style="fill:#439de8;"/><rect x="675.708" y="28.944" width="10.725" height="10.725" style="fill:#439de8;"/><rect x="686.433" y="39.669" width="10.725" height="10.725" style="fill:#439de8;"/></g><g id="Warstwa-2" serif:id="Warstwa 2"><path d="M85.388,137.588l-18.222,0l0,-67.111l-46.445,0l0,184l46.445,0l0,-67.111l18.222,0l0,67.111l46.444,0l0,-67.111l-18.222,0l0,-16.889l-14.666,0l0,-16l14.666,0l0,-16.889l18.222,0l0,-67.111l-46.444,0l0,67.111Z" style="fill:#4091e2;fill-rule:nonzero;stroke:#0d2493;stroke-width:11px;"/><path d="M460.379,225.736l-18.296,0l0,-136.889l-46.445,0l0,147.259l16.185,0l0,18.371l78.778,0l0,-18.371l16.222,0l0,-147.259l-46.444,0l0,136.889Z" style="fill:#4091e2;fill-rule:nonzero;"/><path d="M421.823,244.477l58.778,0l0,-18.37l16.222,0l0,-127.259l-26.444,0l0,136.888l-38.296,0l0,-136.888l-26.445,0l0,127.259l16.185,0l0,18.37Zm78.778,20l-98.778,0l0,-18.37l-16.185,0l0,-167.259l131.185,0l0,167.259l-16.222,0l0,18.37Z" style="fill:#0d2493;fill-rule:nonzero;"/><path d="M142.762,187.366l0,67.111l68.667,0l0,-19.111l-38.963,0l0,-6l19.481,0l0,-16.889l-19.481,0l0,-6l38.963,0l0,-19.111l-68.667,0Z" style="fill:#4091e2;fill-rule:nonzero;stroke:#0d2493;stroke-width:11px;"/><path d="M280.507,187.366l-47.333,0l0,9.556l-10.815,0l0,48l10.815,0l0,9.555l47.333,0l0,-9.555l10.667,0l0,-19.186l-29.704,0l0,9.63l-9.407,0l0,-28.889l9.407,0l0,9.63l29.704,0l0,-19.185l-10.667,0l0,-9.556Z" style="fill:#4091e2;fill-rule:nonzero;stroke:#0d2493;stroke-width:11px;"/><path d="M301.988,206.477l19.222,0l0,9.63l-9.611,0l0,9.629l-9.611,0l0,28.741l67.407,0l0,-19.111l-19.222,0l0,-9.63l9.611,0l0,-9.629l9.611,0l0,-28.741l-67.407,0l0,19.111Z" style="fill:#4091e2;fill-rule:nonzero;stroke:#0d2493;stroke-width:11px;"/><path d="M579.396,117.588l17.778,0l0,28.315l-17.778,0l0,-28.315Zm64.889,-8.555l-17.778,0l0,-20.185l-93.556,0l0,165.629l46.445,0l0,-79.833l47.111,0l0,-19.759l17.778,0l0,-45.852Z" style="fill:#4091e2;fill-rule:nonzero;stroke:#0d2493;stroke-width:20px;"/><path d="M460.379,225.736l-18.296,0l0,-136.889l-46.445,0l0,147.259l16.185,0l0,18.371l78.778,0l0,-18.371l16.222,0l0,-147.259l-46.444,0l0,136.889Z" style="fill:#e0c03b;fill-rule:nonzero;stroke:#1552ce;stroke-width:10px;"/><path d="M579.062,117.588l17.778,0l0,28.315l-17.778,0l0,-28.315Zm64.889,-8.555l-17.778,0l0,-20.185l-93.555,0l0,165.629l46.444,0l0,-79.833l47.111,0l0,-19.759l17.778,0l0,-45.852Z" style="fill:#e0c03b;fill-rule:nonzero;stroke:#1552ce;stroke-width:10px;"/></g><g id="Warstwa-3" serif:id="Warstwa 3"><path d="M85.388,137.588l-18.222,0l0,-67.111l-46.445,0l0,184l46.445,0l0,-67.111l18.222,0l0,67.111l46.444,0l0,-67.111l-18.222,0l0,-16.889l-14.666,0l0,-16l14.666,0l0,-16.889l18.222,0l0,-67.111l-46.444,0l0,67.111Z" style="fill:#ef6280;fill-rule:nonzero;"/><path d="M460.379,225.736l-18.296,0l0,-136.889l-46.445,0l0,147.259l16.185,0l0,18.371l78.778,0l0,-18.371l16.222,0l0,-147.259l-46.444,0l0,136.889Z" style="fill:#439de8;fill-rule:nonzero;"/><path d="M142.762,187.366l0,67.111l68.667,0l0,-19.111l-38.963,0l0,-6l19.481,0l0,-16.889l-19.481,0l0,-6l38.963,0l0,-19.111l-68.667,0Z" style="fill:#ef6280;fill-rule:nonzero;"/><path d="M280.507,187.366l-47.333,0l0,9.556l-10.815,0l0,48l10.815,0l0,9.555l47.333,0l0,-9.555l10.667,0l0,-19.186l-29.704,0l0,9.63l-9.407,0l0,-28.889l9.407,0l0,9.63l29.704,0l0,-19.185l-10.667,0l0,-9.556Z" style="fill:#ef6280;fill-rule:nonzero;"/><path d="M302.103,206.477l19.222,0l0,9.63l-9.611,0l0,9.629l-9.611,0l0,28.741l67.407,0l0,-19.111l-19.222,0l0,-9.63l9.611,0l0,-9.629l9.611,0l0,-28.741l-67.407,0l0,19.111Z" style="fill:#ef6280;fill-rule:nonzero;"/><path d="M579.396,117.588l17.778,0l0,28.315l-17.778,0l0,-28.315Zm64.889,-8.555l-17.778,0l0,-20.185l-93.556,0l0,165.629l46.445,0l0,-79.833l47.111,0l0,-19.759l17.778,0l0,-45.852Z" style="fill:#439de8;fill-rule:nonzero;"/></g></g></svg>